#tb 0: 1/1000000
#media_type 0: video
#codec_id 0: rawvideo
#dimensions 0: 320x240
#sar 0: 1/1
#tb 1: 1/44100
#media_type 1: audio
#codec_id 1: pcm_s16le
#sample_rate 1: 44100
#channel_layout_name 1: mono
0,          0,          0,   200000,   230400, 0x88c4d19a
1,          0,          0,     1024,     2048, 0xb59f0193
1,       1024,       1024,     1024,     2048, 0xba70fe4e
1,       2048,       2048,     1024,     2048, 0xaa83fe05
1,       3072,       3072,     1024,     2048, 0x487e06b5
1,       4096,       4096,     1024,     2048, 0xb0abfcca
1,       5120,       5120,     1024,     2048, 0x869ef510
1,       6144,       6144,     1024,     2048, 0x547cf717
1,       7168,       7168,     1024,     2048, 0xca830826
1,       8192,       8192,     1024,     2048, 0xf7700954
0,     200000,     200000,   200000,   230400, 0x0d77c977
1,       9216,       9216,     1024,     2048, 0x3759f55c
1,      10240,      10240,     1024,     2048, 0x0ca9f7ee
1,      11264,      11264,     1024,     2048, 0xfb78fe99
1,      12288,      12288,     1024,     2048, 0x93580191
1,      13312,      13312,     1024,     2048, 0x079f0797
1,      14336,      14336,     1024,     2048, 0xcf5ff38b
1,      15360,      15360,     1024,     2048, 0xb201f701
1,      16384,      16384,     1024,     2048, 0x7aac0476
1,      17408,      17408,     1024,     2048, 0xd89b0222
0,     400000,     400000,   200000,   230400, 0x242629d7
1,      18432,      18432,     1024,     2048, 0x160b013e
1,      19456,      19456,     1024,     2048, 0x950ef0eb
1,      20480,      20480,     1024,     2048, 0x9b51fada
1,      21504,      21504,     1024,     2048, 0xed610097
1,      22528,      22528,     1024,     2048, 0x40b90a9d
1,      23552,      23552,     1024,     2048, 0x21eaf6e7
1,      24576,      24576,     1024,     2048, 0x3efcf601
1,      25600,      25600,     1024,     2048, 0x86bd01fa
0,     600000,     600000,   200000,   230400, 0x62cdc018
1,      26624,      26624,     1024,     2048, 0x2cd00562
1,      27648,      27648,     1024,     2048, 0xc9ee0204
1,      28672,      28672,     1024,     2048, 0x00faf605
1,      29696,      29696,     1024,     2048, 0xb031f4cd
1,      30720,      30720,     1024,     2048, 0xcb3f03b5
1,      31744,      31744,     1024,     2048, 0xb11e067a
1,      32768,      32768,     1024,     2048, 0x3fb4f725
1,      33792,      33792,     1024,     2048, 0x010df577
1,      34816,      34816,     1024,     2048, 0xcc6bfbd9
0,     800000,     800000,   200000,   230400, 0x248ad058
1,      35840,      35840,     1024,     2048, 0xf2f606c7
1,      36864,      36864,     1024,     2048, 0x35560716
1,      37888,      37888,     1024,     2048, 0x41c0f43f
1,      38912,      38912,     1024,     2048, 0x28f7f672
1,      39936,      39936,     1024,     2048, 0x96a006a7
1,      40960,      40960,     1024,     2048, 0x22cb0176
1,      41984,      41984,     1024,     2048, 0x8bedffc2
1,      43008,      43008,     1024,     2048, 0xbfaef5ae
1,      44032,      44032,       68,      136, 0xc35a50c5
0,    1000000,    1000000,   200000,   230400, 0x223d134f
1,      44100,      44100,     9600,    19200, 0x00000000
0,    1200000,    1200000,   200000,   230400, 0xbf1c3d34
1,      53700,      53700,     9600,    19200, 0x00000000
0,    1400000,    1400000,   200000,   230400, 0xae0efe96
1,      63300,      63300,     9600,    19200, 0x00000000
0,    1600000,    1600000,   200000,   230400, 0x0cd624d1
1,      72900,      72900,     9600,    19200, 0x00000000
0,    1800000,    1800000,   200000,   230400, 0x6dedf2c0
1,      82500,      82500,     5700,    11400, 0x00000000
0,    2000000,    2000000,    66667,   230400, 0x88c4d19a
1,      88200,      88200,     1024,     2048, 0x2906fb3a
1,      89224,      89224,     1024,     2048, 0x83f6fb92
1,      90248,      90248,     1024,     2048, 0xbe36fcc1
0,    2066667,    2066667,    66667,   230400, 0x5bbc2f63
1,      91272,      91272,     1024,     2048, 0xadc8017e
1,      92296,      92296,     1024,     2048, 0x5a73ffde
1,      93320,      93320,     1024,     2048, 0x77b1ff47
0,    2133333,    2133333,    66667,   230400, 0x3becbfad
1,      94344,      94344,     1024,     2048, 0x3629071b
1,      95368,      95368,     1024,     2048, 0xdb0cf65b
1,      96392,      96392,     1024,     2048, 0x77a808e2
0,    2200000,    2200000,    66667,   230400, 0x0d77c977
1,      97416,      97416,     1024,     2048, 0xe961f137
1,      98440,      98440,     1024,     2048, 0x965103ec
1,      99464,      99464,     1024,     2048, 0x0305fa4b
0,    2266667,    2266667,    66667,   230400, 0x436cf4b2
1,     100488,     100488,     1024,     2048, 0x83c1fb91
1,     101512,     101512,     1024,     2048, 0x014af961
1,     102536,     102536,     1024,     2048, 0x186cf73f
0,    2333333,    2333333,    66667,   230400, 0x39210f27
1,     103560,     103560,     1024,     2048, 0x4d60ff77
1,     104584,     104584,     1024,     2048, 0xea04edea
1,     105608,     105608,     1024,     2048, 0xc93204ff
0,    2400000,    2400000,    66667,   230400, 0x242629d7
1,     106632,     106632,     1024,     2048, 0x544ff17d
1,     107656,     107656,     1024,     2048, 0x58e200ae
1,     108680,     108680,     1024,     2048, 0xdea9f932
0,    2466667,    2466667,    66667,   230400, 0x771c2293
1,     109704,     109704,     1024,     2048, 0x53ecfe34
1,     110728,     110728,     1024,     2048, 0x6242fc3b
0,    2533333,    2533333,    66667,   230400, 0xec2af9a9
1,     111752,     111752,     1024,     2048, 0x257efbac
1,     112776,     112776,     1024,     2048, 0x978e0833
1,     113800,     113800,     1024,     2048, 0x47bcf66e
0,    2600000,    2600000,    66667,   230400, 0x62cdc018
1,     114824,     114824,     1024,     2048, 0xebbb0b1a
1,     115848,     115848,     1024,     2048, 0x45b8f805
1,     116872,     116872,     1024,     2048, 0xf73b0796
0,    2666667,    2666667,    66667,   230400, 0xf02c8693
1,     117896,     117896,     1024,     2048, 0x56a6f9df
1,     118920,     118920,     1024,     2048, 0x80ccff1a
1,     119944,     119944,     1024,     2048, 0x4f06fe14
0,    2733333,    2733333,    66667,   230400, 0x14436efb
1,     120968,     120968,     1024,     2048, 0x8177f733
1,     121992,     121992,     1024,     2048, 0xb64404a4
1,     123016,     123016,     1024,     2048, 0xce65f00a
0,    2800000,    2800000,    66667,   230400, 0x248ad058
1,     124040,     124040,     1024,     2048, 0xb1b5035b
1,     125064,     125064,     1024,     2048, 0xe2eff0f3
1,     126088,     126088,     1024,     2048, 0xd3740083
0,    2866667,    2866667,    66667,   230400, 0xe87f6c52
1,     127112,     127112,     1024,     2048, 0xf0eff27f
1,     128136,     128136,     1024,     2048, 0x6ceafd03
1,     129160,     129160,     1024,     2048, 0x640bfbe1
0,    2933333,    2933333,    66667,   230400, 0x6a0c196b
1,     130184,     130184,     1024,     2048, 0xd8daf5c9
1,     131208,     131208,     1024,     2048, 0x239b0696
1,     132232,     132232,     1024,     2048, 0x34ca2574
1,     133256,     133256,     1024,     2048, 0x70971a20
1,     134280,     134280,     1024,     2048, 0xb9f3f740
1,     135304,     135304,     1024,     2048, 0x2c5a0824
1,     136328,     136328,     1024,     2048, 0xe408fc40
1,     137352,     137352,     1024,     2048, 0xcb32019a
1,     138376,     138376,     1024,     2048, 0xfe19042b
1,     139400,     139400,     1024,     2048, 0xec08fa0c
1,     140424,     140424,     1024,     2048, 0x7a00087c
1,     141448,     141448,     1024,     2048, 0xa390ee4a
1,     142472,     142472,     1024,     2048, 0x7af00762
1,     143496,     143496,     1024,     2048, 0x11f9f541
1,     144520,     144520,     1024,     2048, 0x71f1ff60
1,     145544,     145544,     1024,     2048, 0x05a3f8a6
1,     146568,     146568,     1024,     2048, 0xd0a3f88a
1,     147592,     147592,     1024,     2048, 0xf4cefbe9
1,     148616,     148616,     1024,     2048, 0x34dcf316
1,     149640,     149640,     1024,     2048, 0x263d043a
1,     150664,     150664,     1024,     2048, 0xe741eccf
1,     151688,     151688,     1024,     2048, 0x01e40715
1,     152712,     152712,     1024,     2048, 0x037ef319
1,     153736,     153736,     1024,     2048, 0x4faf00e5
1,     154760,     154760,     1024,     2048, 0x9ec1fba7
1,     155784,     155784,     1024,     2048, 0xb575fdae
1,     156808,     156808,     1024,     2048, 0x152b0381
1,     157832,     157832,     1024,     2048, 0x76c0f96a
1,     158856,     158856,     1024,     2048, 0x02200ce5
1,     159880,     159880,     1024,     2048, 0xd816f252
1,     160904,     160904,     1024,     2048, 0x9a210d74
1,     161928,     161928,     1024,     2048, 0xdf52f701
1,     162952,     162952,     1024,     2048, 0xb1acff54
1,     163976,     163976,     1024,     2048, 0xe059fce7
1,     165000,     165000,     1024,     2048, 0x5fbafca5
1,     166024,     166024,     1024,     2048, 0x065f0044
1,     167048,     167048,     1024,     2048, 0x138af014
1,     168072,     168072,     1024,     2048, 0x011907b6
1,     169096,     169096,     1024,     2048, 0x56d6eaf1
1,     170120,     170120,     1024,     2048, 0x0862046a
1,     171144,     171144,     1024,     2048, 0x2480f12a
1,     172168,     172168,     1024,     2048, 0x13fffc9c
1,     173192,     173192,     1024,     2048, 0x996afa59
1,     174216,     174216,     1024,     2048, 0xb859f84e
1,     175240,     175240,     1024,     2048, 0x38170512
1,     176264,     176264,      136,      272, 0x48418a43
0,    4000000,    4000000,   125000,   230400, 0x88c4d19a
1,     176400,     176400,     1024,     2048, 0xdb0cfe95
1,     177424,     177424,     1024,     2048, 0xc8b3fdf1
1,     178448,     178448,     1024,     2048, 0x01aef583
1,     179472,     179472,     1024,     2048, 0x79be017e
1,     180496,     180496,     1024,     2048, 0xd00ffd65
1,     181520,     181520,     1024,     2048, 0x4513fcf8
0,    4125000,    4125000,   125000,   230400, 0x05c1b733
1,     182544,     182544,     1024,     2048, 0x55a30411
1,     183568,     183568,     1024,     2048, 0x30f9f596
1,     184592,     184592,     1024,     2048, 0xbdf203a3
1,     185616,     185616,     1024,     2048, 0x466af89f
1,     186640,     186640,     1024,     2048, 0xeb8bfe33
0,    4250000,    4250000,   125000,   230400, 0x0446ec19
1,     187664,     187664,     1024,     2048, 0x5335fe73
1,     188688,     188688,     1024,     2048, 0x159bff32
1,     189712,     189712,     1024,     2048, 0x1b81ff1e
1,     190736,     190736,     1024,     2048, 0xaa2ffa70
1,     191760,     191760,     1024,     2048, 0x0441004f
1,     192784,     192784,     1024,     2048, 0x8433fb21
0,    4375000,    4375000,   125000,   230400, 0x0f9b1744
1,     193808,     193808,     1024,     2048, 0x6a9afe1d
1,     194832,     194832,     1024,     2048, 0x7bd2ff53
1,     195856,     195856,     1024,     2048, 0xbe15fcfe
1,     196880,     196880,     1024,     2048, 0xfc12014a
1,     197904,     197904,     1024,     2048, 0x49dbf575
0,    4500000,    4500000,   125000,   230400, 0x30cf070a
1,     198928,     198928,     1024,     2048, 0xfe400599
1,     199952,     199952,     1024,     2048, 0xd7bdf732
1,     200976,     200976,     1024,     2048, 0xb70cffac
1,     202000,     202000,     1024,     2048, 0xc46a015f
1,     203024,     203024,     1024,     2048, 0xcf07f9a9
0,    4625000,    4625000,   125000,   230400, 0x9175aaa9
1,     204048,     204048,     1024,     2048, 0x108c06c2
1,     205072,     205072,     1024,     2048, 0xd340f350
1,     206096,     206096,     1024,     2048, 0x0a7b09f0
1,     207120,     207120,     1024,     2048, 0x4299ee71
1,     208144,     208144,     1024,     2048, 0x43ff060d
1,     209168,     209168,     1024,     2048, 0xbe31fafb
0,    4750000,    4750000,   125000,   230400, 0x597f5628
1,     210192,     210192,     1024,     2048, 0xaaae01cb
1,     211216,     211216,     1024,     2048, 0xa7abfd7f
1,     212240,     212240,     1024,     2048, 0x0b0cf839
1,     213264,     213264,     1024,     2048, 0x5cec0417
1,     214288,     214288,     1024,     2048, 0x6909f4f5
0,    4875000,    4875000,   125000,   230400, 0x38a45a85
1,     215312,     215312,     1024,     2048, 0xf89104fb
1,     216336,     216336,     1024,     2048, 0x51daf8c8
1,     217360,     217360,     1024,     2048, 0xc66004f4
1,     218384,     218384,     1024,     2048, 0xd48efa17
1,     219408,     219408,     1024,     2048, 0xb6ed001a
1,     220432,     220432,       68,      136, 0x33e64a0d
